<svg width="512" height="512" viewBox="0 0 512 512" fill="none" xmlns="http://www.w3.org/2000/svg">
<circle cx="256" cy="256" r="256" fill="white"/>
<path fill-rule="evenodd" clip-rule="evenodd" d="M256 108.089C174.311 108.089 108.089 174.311 108.089 256C108.089 337.689 174.311 403.911 256 403.911C333.861 403.911 397.67 343.751 403.48 267.378H260.192V244.622H426.667V256C426.667 350.257 350.257 426.667 256 426.667C161.743 426.667 85.3334 350.257 85.3334 256C85.3334 161.744 161.743 85.3335 256 85.3335C298.102 85.3335 336.67 100.594 366.429 125.871L351.697 143.214C325.897 121.299 292.506 108.089 256 108.089Z" fill="black"/>
</svg>
