<?xml version="1.0" standalone="no"?>
<!DOCTYPE svg PUBLIC "-//W3C//DTD SVG 20010904//EN"
 "http://www.w3.org/TR/2001/REC-SVG-20010904/DTD/svg10.dtd">
<svg version="1.0" xmlns="http://www.w3.org/2000/svg"
 width="512.000000pt" height="512.000000pt" viewBox="0 0 512.000000 512.000000"
 preserveAspectRatio="xMidYMid meet">
<metadata>
Created by potrace 1.11, written by Peter Selinger 2001-2013
</metadata>
<g transform="translate(0.000000,512.000000) scale(0.100000,-0.100000)"
fill="#000000" stroke="none">
<path d="M2406 4259 c-509 -45 -979 -326 -1266 -757 -521 -783 -307 -1839 478
-2362 783 -521 1839 -307 2362 478 190 285 289 624 290 990 l0 62 -835 0 -835
0 0 -110 0 -110 715 0 715 0 0 -39 c0 -58 -28 -194 -62 -300 -124 -387 -394
-702 -753 -877 -227 -110 -391 -147 -650 -148 -199 -1 -287 12 -454 66 -387
124 -702 394 -877 753 -110 227 -147 391 -148 650 -1 199 12 287 66 454 124
387 394 702 753 877 130 63 222 95 365 125 140 30 418 33 555 6 235 -48 460
-147 637 -283 l56 -44 72 86 73 86 -29 24 c-16 14 -75 56 -132 94 -243 162
-504 253 -808 279 -133 12 -147 12 -288 0z"/>
</g>
</svg>
